<svg width="40" height="35" viewBox="0 0 40 35" fill="none" xmlns="http://www.w3.org/2000/svg"><path d="M32.502 5V0h-25v5H0v5a7.502 7.502 0 009.751 7.155 12.505 12.505 0 007.751 5.094V30H15c-2.763 0-5 2.237-5 5h20c0-2.763-2.237-5-5-5h-2.502v-7.751a12.505 12.505 0 007.751-5.094c.71.225 1.465.343 2.249.343A7.502 7.502 0 0040 10V5h-7.498zm-25 9.53A4.536 4.536 0 012.972 10V7.498h4.53V10c0 1.571.29 3.073.82 4.457a4.96 4.96 0 01-.82.074zM37.032 10a4.536 4.536 0 01-5.35 4.457c.526-1.384.82-2.886.82-4.457V7.498h4.53V10z" fill="#FF8A00"/></svg>