<svg width="40" height="51" viewBox="0 0 40 51" fill="none" xmlns="http://www.w3.org/2000/svg"><path d="M39.877 42.656l-6.802-14.698-.41.256a1.09 1.09 0 00-.337.328l-1.71 2.627a3.08 3.08 0 01-2.433 1.372l-3.186.134a1.178 1.178 0 00-.46.117l-.447.226-3.18 6.878 4.384 9.485c.44.952 1.777 1.075 2.392.215l3.334-4.67c.374-.503.86-.77 1.183-.58l6.366.216c1.019.035 1.726-.989 1.306-1.906zM21.7 34.246a3.27 3.27 0 01-1.398.319 3.1 3.1 0 01-1.404-.333l-.793-.405-2.039-1.03a1.117 1.117 0 00-.46-.117l-3.191-.133a3.08 3.08 0 01-2.433-1.373l-1.71-2.627a1.032 1.032 0 00-.339-.328l-.88-.543-6.93 14.996c-.415.896.261 1.905 1.255 1.905h.051l6.366-.215h.051c.451 0 .871.215 1.132.578l3.334 4.671c.277.39.707.579 1.132.579.512 0 1.024-.277 1.26-.794l5.29-11.451 1.71-3.703-.004.005zM5.03 19.867c.19.353.292.732.307 1.127l.138 3.114c.02.44.261.84.64 1.08l.2.123.707.435.707.436 1.075.67c.343.21.63.497.845.825l1.716 2.627c.24.374.65.605 1.106.625l3.186.133c.404.016.793.118 1.152.303l.169.087 2.658 1.347c.2.102.42.148.635.148.215 0 .435-.046.635-.148l1.874-.948.963-.486a2.927 2.927 0 011.152-.302l.072-.006 3.12-.133a1.4 1.4 0 001.105-.625l1.716-2.627c.215-.333.507-.614.845-.825l.61-.378 2.079-1.291c.379-.236.62-.635.64-1.08l.138-3.114a2.63 2.63 0 01.308-1.127l1.47-2.766a1.3 1.3 0 000-1.24l-1.46-2.765a2.558 2.558 0 01-.307-1.127l-.139-3.108c-.02-.44-.26-.84-.64-1.08L31.76 6.093a2.707 2.707 0 01-.845-.824l-1.71-2.627a1.379 1.379 0 00-1.107-.625l-3.18-.133a2.734 2.734 0 01-1.152-.302L20.927.149c-.2-.103-.42-.149-.635-.149-.215 0-.435.046-.635.149L16.82 1.583a2.753 2.753 0 01-1.152.302l-3.186.133c-.456.02-.86.25-1.106.625L9.656 5.27a2.706 2.706 0 01-.846.824L6.121 7.77c-.379.236-.62.635-.64 1.08l-.138 3.115a2.628 2.628 0 01-.307 1.126l-1.47 2.766a1.3 1.3 0 000 1.24l1.465 2.77z" fill="#FF8A00"/></svg>