<svg width="50" height="39" viewBox="0 0 50 39" fill="none" xmlns="http://www.w3.org/2000/svg"><path d="M45.152.619c-.94 1.459-1.1 3.368-.43 5.127.05.13-.05.15-.64.15-.79 0-3.658-.23-5.698-.45-.74-.08-1.439-.15-1.549-.14-.12 0 .91.29 2.279.63 2.998.76 4.058 1.1 5.447 1.78.86.409 1.18.639 1.77 1.219.64.65.73.79.93 1.45.41 1.338.16 2.658-.76 4.077-.58.9-2.72 2.968-4.238 4.098-.74.55-2.05 1.46-2.899 2.03-.85.559-1.59 1.069-1.65 1.119-.32.3 2.89-1.3 4.758-2.38 3.71-2.118 5.758-3.957 6.788-6.086.57-1.19.73-1.81.74-2.949.01-1.37-.18-1.659-2.49-3.948-1.499-1.489-1.978-2.018-2.188-2.458-.51-1.06-.5-2.11.02-3.239.17-.36.29-.649.26-.649-.02-.001-.22.279-.45.619zm-8.636 22.579c-1.96.25-3.809.92-7.417 2.719-4.058 2.018-5.237 2.399-7.426 2.399-1.41 0-2.23-.16-3.738-.72-.57-.21-.72-.22-2.949-.19l-2.359.03-.68.32c-1.179.56-2.048 1.649-2.568 3.228-.24.74-.5 2.31-.5 3.049v.51l2.08.52c2.958.74 4.167.929 6.226.99 2.03.059 3.018-.041 4.298-.47 1.58-.53 2.799-1.4 7.187-5.158 5.317-4.538 7.546-6.088 10.035-6.938.54-.18.73-.29.61-.329-.23-.09-1.94-.06-2.8.04z" fill="#FF8A00"/><path d="M14.046 25.207c-.42.77-.77 1.45-.77 1.529 0 .03.92.05 2.05.05 1.129 0 2.048-.03 2.048-.06s-.25-.53-.56-1.1l-.559-1.038h-1.86l-.349.619zm-11.444.989c-1.02.17-1.629.64-2.06 1.59-.639 1.41-.719 2.718-.209 3.758.36.74 1.04 1.18 2.67 1.719.999.34 4.657 1.18 4.737 1.09.01-.01-.07-.37-.19-.8-.16-.61-.25-.78-.41-.82-.12-.03-.94-.19-1.829-.35-1.77-.33-3.048-.7-3.418-.99-.3-.23-.42-.91-.3-1.81.06-.539.13-.689.38-.918.44-.39 1.299-.62 2.098-.55.37.03 1.24.24 1.94.46 1.45.46 2.049.51 2.549.21.47-.29.49-.44.1-.79-.88-.79-2.799-1.6-4.308-1.8-.88-.119-1-.119-1.75.001zM11.298 37.8l.03 1.03h8.996l.03-.6.03-.609-1.829.04c-2.069.05-3.468-.1-5.678-.58-.74-.17-1.409-.3-1.479-.3-.1 0-.12.24-.1 1.02z" fill="#FF8A00"/></svg>