<svg width="40" height="32" viewBox="0 0 40 32" fill="none" xmlns="http://www.w3.org/2000/svg"><path d="M6.01.16a2.47 2.47 0 00-1.356 1.23c-.221.462-.23.597-.23 2.481v2h11.538v-2c0-1.961-.01-2.01-.25-2.5A2.388 2.388 0 0014.337.15c-.616-.202-7.74-.202-8.327.01zM25.77.092a2.793 2.793 0 00-1.596 1.356c-.164.289-.183.606-.212 2.375l-.029 2.049h11.654l-.029-2.049c-.029-1.769-.048-2.086-.212-2.375-.25-.47-.71-.942-1.163-1.182-.375-.203-.49-.212-4.279-.231-2.144-.01-4 .02-4.135.057zM0 19.622v11.634h40V7.987H0v11.635z" fill="#FF8A00"/></svg>