<svg width="50" height="36" viewBox="0 0 50 36" fill="none" xmlns="http://www.w3.org/2000/svg"><path d="M46.484.095c-.123.045-.97.849-1.897 1.775l-1.674 1.685H32.857c-6.373 0-10.279.044-10.659.112-1.394.268-2.756 1.227-3.683 2.59l-.435.647-.524-.402c-1.284-.983-2.054-1.161-4.945-1.161-2.455 0-2.868.1-3.359.792-.357.513-.38 1.496-.034 1.964.514.692.849.815 2.277.815 1.607 0 2.132.212 2.544 1.005.436.859.357 1.071-.602 1.841l-.849.67.436.067c.234.045.87.134 1.406.2 2.69.358 5.111 1.954 6.25 4.12.525.992.749 1.985.749 3.403 0 1.484.245 2.6.859 3.873.435.904.658 1.205 1.529 2.076.87.87 1.172 1.094 2.076 1.529 1.384.67 2.567.915 4.018.826 2.064-.123 3.66-.837 5.145-2.31 1.06-1.05 1.63-1.942 2.098-3.326l.29-.86.034-5.67.034-5.658H50V3.555h-1.786V2.271c0-1.45-.123-1.84-.67-2.12-.357-.179-.714-.201-1.06-.056zM33.93 8.02v.893H23.214V7.127H33.93v.892zm0 5.357v.893H23.214v-1.786H33.93v.893zm-7.043 6.864c.201.882.804 2.031 1.44 2.701.558.614.781.703 1.06.424.134-.123.145-.256.067-.58-.134-.58-.123-2.232.023-2.746l.111-.413h5.234v.66c0 3.124-2.366 5.59-5.357 5.59-2.611 0-5.045-2.131-5.212-4.553-.056-.659-.022-.792.201-1.072.346-.435.815-.613 1.618-.625h.681l.134.614z" fill="#FF8A00"/><path d="M8.873 15.52C3.002 20.697 0 25.686 0 30.284c0 2.612 1.719 4.766 4.24 5.302.436.089 2.144.111 5.804.089 5.056-.034 5.201-.044 5.715-.279.67-.302 1.417-1.049 1.763-1.763l.279-.559.056-5.412.055-5.413.29-.558c.29-.525 1.161-1.507 1.351-1.507.145 0 .1-.915-.09-1.618-.368-1.429-1.45-2.668-2.968-3.393-1.373-.647-2.11-.792-4.275-.87l-1.897-.056-1.45 1.271z" fill="#FF8A00"/></svg>