<svg width="40" height="40" viewBox="0 0 40 40" fill="none" xmlns="http://www.w3.org/2000/svg"><path d="M24.341.841c.032.472.063 2.197.071 3.842l.016 2.991-3.125 2.205c-1.716 1.212-3.117 2.22-3.117 2.243-.008.024 1.251.426 2.786.906l2.795.866-11.762 11.769C1.173 36.503.235 37.463.118 37.818c-.236.732-.158.945.606 1.685.488.464.536.488.898.488.204 0 .535-.079.732-.165.275-.118 2.881-2.685 12.045-11.848l11.69-11.683.819 2.653c.457 1.464.842 2.7.866 2.755.031.056 1.04-1.306 2.26-3.03l2.211-3.126 3.882.032L40 15.61l-.661-.897c-.362-.496-1.401-1.89-2.307-3.102l-1.645-2.196 1.228-3.645c.685-2.008 1.212-3.645 1.18-3.645-.03 0-1.676.55-3.652 1.22l-3.598 1.22-3.062-2.282C25.79 1.03 24.389 0 24.358 0c-.032 0-.04.377-.017.841zm-8.045.15c-.008.425-.276 1.433-.48 1.842-.22.433-.646.898-1.047 1.126-.292.173-1 .417-1.67.567-.212.055-.196.07.245.157a3.721 3.721 0 011.905 1.032c.528.527.827 1.07.968 1.763.142.693.158.7.316.094.18-.732.637-1.598 1-1.92a3.75 3.75 0 01.763-.465c.488-.228 1.567-.536 1.92-.551.111 0-.11-.071-.503-.15-.771-.157-1.338-.33-1.779-.55-.307-.158-.787-.654-.96-1-.158-.316-.426-1.158-.56-1.756-.103-.473-.11-.488-.118-.189zm19.027 21.287c-.18.976-.41 1.512-.85 1.992-.448.488-1.157.85-2 1.023l-.55.102.495.11c1.56.331 2.685 1.496 2.944 3.055l.095.559.134-.59c.173-.748.543-1.528.92-1.921.379-.394 1.308-.835 2.127-1.008.606-.126.842-.252.464-.252-.323 0-1.48-.315-1.897-.512-.882-.41-1.346-1.18-1.661-2.724l-.103-.496-.118.662zm-6.911 8.431c0 .362-.22 1.157-.45 1.606a2.892 2.892 0 01-1.086 1.173c-.362.213-1.299.52-1.59.52-.307 0-.142.134.244.189.189.031.598.173.913.323 1.04.504 1.755 1.472 1.976 2.669l.102.535.182-.677c.456-1.74 1.196-2.393 3.156-2.795l.661-.141-.692-.134c-1.244-.244-2.063-.614-2.44-1.11-.276-.362-.552-1.04-.717-1.795-.142-.63-.26-.788-.26-.363z" fill="#FF8A00"/></svg>