<svg width="30" height="45" viewBox="0 0 30 45" fill="none" xmlns="http://www.w3.org/2000/svg"><path d="M20.42 45h-4.844a.45.45 0 01-.45-.45v-.987c0-.413.133-.8.363-1.111l-.203-1.603h-.794l-.216 1.722a.23.23 0 01-.009.055 1.9 1.9 0 01.248.937v.987a.45.45 0 01-.45.45h-4.84a.45.45 0 01-.45-.45v-.987c0-.436.147-.836.395-1.157-.023-.207-.1-.712-.376-1.506-.271-.776-1.038-1.438-1.405-1.7a4.935 4.935 0 01-3.38-1.661l.046.473c.28.165.804.468 1.148.601.795.308 1.24.983 1.258 1.896.014.776-.61 1.222-1.138 1.424-.11.532-.492 1.23-1.456 1.396-1 .17-1.556-.473-1.8-1.024H1.7c-.638 0-1.446-.276-1.667-1.594-.151-.904.257-2.02.418-2.41l-.299-1.534a.439.439 0 01.097-.372.48.48 0 01.326-.165C.45 35.142.24 32.497.639 29.866c.39-2.558 1.166-4.096 1.548-4.738l-.464-.437a.449.449 0 01-.138-.4l.349-2.125a.453.453 0 01.753-.257l.06.055V10.958A9.78 9.78 0 014.579 5.25a.455.455 0 01-.129-.38c.019-.12.473-2.99 4.252-4.358 3.802-1.378 5.62.464 5.694.542.023.023.046.05.06.082h1.088a.91.91 0 01.06-.082C15.676.976 17.5-.87 21.296.512c3.783 1.373 4.238 4.238 4.256 4.357a.451.451 0 01-.284.487 9.775 9.775 0 011.758 5.602V21.9a.453.453 0 01.436-.083.454.454 0 01.299.354l.349 2.125a.449.449 0 01-.138.4l-.404.381c.358.647 1.097 2.222 1.492 4.794.404 2.63.189 5.27.065 6.364a.43.43 0 01.326.165.455.455 0 01.096.372l-.298 1.533c.16.386.569 1.507.417 2.411-.22 1.318-1.028 1.593-1.666 1.593h-.368c-.238.551-.799 1.194-1.8 1.024-.964-.16-1.35-.858-1.455-1.396-.528-.202-1.153-.647-1.139-1.423.018-.914.464-1.589 1.258-1.896.322-.124.836-.414 1.148-.602l.037-.38a4.957 4.957 0 01-3.292 1.57c-.276.197-1.111.853-1.41 1.698-.372 1.07-.386 1.612-.386 1.621 0 .023-.004.046-.004.069.17.285.27.62.27.973v.988a.436.436 0 01-.44.445zm-4.394-.9h3.94v-.537a.974.974 0 00-.235-.638.61.61 0 01-.115-.074 1.056 1.056 0 00-.711-.275h-1.823c-.262 0-.515.096-.712.275a.378.378 0 01-.115.074.983.983 0 00-.234.638v.537h.005zm-6.35 0h3.94v-.537a.974.974 0 00-.235-.638.61.61 0 01-.115-.074 1.056 1.056 0 00-.712-.275h-1.822c-.262 0-.515.096-.712.275a.377.377 0 01-.115.074.983.983 0 00-.234.638v.537h.004zm15.597-2.319c.05.225.211.574.721.662.689.114.868-.602.886-.68a.452.452 0 01.441-.354h.689c.307 0 .647-.064.776-.84.115-.675-.257-1.69-.409-2.02a.46.46 0 01-.032-.271l.22-1.134h-1.914l-.12 1.194a.455.455 0 01-.21.34c-.038.022-.924.569-1.484.785-.445.174-.675.532-.684 1.074-.005.29.326.473.55.56l.589-.5a.45.45 0 01.583.684l-.602.5zM1.144 37.135l.22 1.134a.455.455 0 01-.031.27c-.152.336-.52 1.346-.41 2.02.13.777.47.841.777.841h.689c.21 0 .394.147.44.354.033.133.22.794.887.68.51-.088.67-.441.72-.662l-.596-.51a.45.45 0 01.583-.684l.587.5c.225-.087.556-.27.551-.56-.009-.541-.238-.9-.684-1.074-.56-.22-1.446-.762-1.483-.785a.447.447 0 01-.211-.34l-.12-1.194H1.145v.01zm9.528 4.532h1.951c.299 0 .583.068.84.197l.189-1.52a.45.45 0 01.445-.395h1.589c.23 0 .418.17.445.395l.184 1.465c.22-.087.46-.138.707-.138h1.952c.293 0 .569.064.817.184.06-.308.17-.726.353-1.25.193-.55.542-1.023.887-1.39H8.757c.345.367.694.84.886 1.39.175.497.276.892.34 1.195.211-.088.445-.133.689-.133zm-5.905-4.629a4.04 4.04 0 002.948 1.272h14.353a4.038 4.038 0 002.925-1.249c-.477-.243-1.125-.753-1.57-1.814-.16-.376-.257-.918-.317-1.538v-.023c-.133-1.455-.037-3.333.05-4.523l-.826.712a.577.577 0 01-.087.06c-.028.014-.06.023-.092.032-.005 0-.01 0-.014.005h-.046a.453.453 0 01-.317-.23l-.96-1.795a.444.444 0 01-.04-.276.446.446 0 01.142-.248l1.194-1.042c-1.066.165-2.406.344-3.435.372-1.956.06-3.503.06-3.517.06-.06 0-.11-.01-.16-.032a.476.476 0 01-.162.032c-.013 0-1.565 0-3.517-.06-1.028-.032-2.364-.207-3.434-.372l1.194 1.042.009.01a.484.484 0 01.138.243.462.462 0 01-.037.27l-.96 1.796a.438.438 0 01-.128.115l-.028.014c-.01.004-.023.004-.032.009a.401.401 0 01-.074.009h-.023a.44.44 0 01-.146-.055c-.019-.01-.033-.023-.051-.037l-.826-.712c.087 1.194.183 3.072.05 4.528v.009c-.06.62-.156 1.166-.317 1.543-.799 1.106-1.414 1.62-1.887 1.873zm19.276-3.03c.046.367.114.67.21.89.4.946.965 1.295 1.273 1.42.018-.014.037-.024.055-.037a4.023 4.023 0 00.546-2.035v-.739l-2.084.5zM3.656 33.53v.726c0 .748.202 1.45.56 2.057.312-.134.854-.492 1.24-1.41.092-.22.16-.528.211-.89l-2.011-.483zm22.958 2.7h1.607c.11-.973.349-3.641-.046-6.226-.294-1.924-.794-3.26-1.148-4.013v8.26c0 .703-.147 1.373-.413 1.979zm-25.13 0h1.68a4.91 4.91 0 01-.413-1.979v-8.274c-.372.716-.918 2.048-1.221 4.027-.39 2.59-.156 5.257-.046 6.226zm2.172-3.627l2.09.495c.077-1.611-.065-3.71-.166-4.78L3.656 26.51v6.093zm20.474-4.284c-.101 1.07-.243 3.168-.165 4.78l2.162-.515v-6.143l-1.997 1.878zM3.514 25.14l4.036 3.68.514-.96-2.337-1.9c-.01-.01-.019-.014-.028-.023L2.903 23.34l-.01-.009-.197-.184-.174 1.061.992.932zm18.132 2.714l.514.96 4.11-3.747.918-.863-.175-1.061-.124.115-.004.004-2.87 2.668c-.005.005-.01.01-.018.014l-.01.009-2.341 1.9zM6.443 25.228c.877.157 3.223.56 4.757.607 1.942.06 3.476.06 3.494.06.06 0 .11.009.16.031a.479.479 0 01.162-.032c.013 0 1.551 0 3.494-.06 1.533-.045 3.88-.445 4.757-.605l2.86-2.498V10.958a8.926 8.926 0 00-4.288-7.622.455.455 0 01-.161.463.453.453 0 01-.634-.082c-.004-.01-.693-.877-1.914-1.474a8.896 8.896 0 00-1.929-.211h-4.624a8.88 8.88 0 00-1.529.133c-1.336.606-2.07 1.547-2.08 1.556a.453.453 0 01-.716-.55c.005-.005.01-.014.018-.024a8.93 8.93 0 00-4.619 7.815V22.8l2.792 2.428zm12.985-23.84a9.835 9.835 0 015.023 2.944c-.349-.813-1.24-2.172-3.457-2.975C19.764.91 18.79.847 18.05.939a5.731 5.731 0 011.377.45zM11.374.903c-.642 0-1.423.12-2.355.455-1.818.66-2.746 1.694-3.214 2.488a9.809 9.809 0 014.977-2.548c.028-.014.06-.023.087-.037a5.77 5.77 0 011.098-.326 5.762 5.762 0 00-.593-.032zm3.798 34.153h-1.185a3.196 3.196 0 01-3.191-3.192V29.27a.45.45 0 01.45-.45h6.667a.45.45 0 01.45.45v2.594a3.196 3.196 0 01-3.191 3.192zm-3.476-5.331v2.14a2.295 2.295 0 002.291 2.29h1.185a2.295 2.295 0 002.29-2.29v-2.14h-5.766zm3.292-6.686c-3.03 0-4.904-.684-4.986-.716a.449.449 0 01-.267-.578.449.449 0 01.579-.267c.018.005 1.818.657 4.67.657 2.8 0 4.013-.625 4.022-.634a.457.457 0 01.61.184c.12.22.037.491-.179.606-.05.037-1.386.748-4.449.748zm4.826-4.504a6.023 6.023 0 01-4.826-2.429 6.048 6.048 0 01-4.826 2.429 6.02 6.02 0 01-6.015-6.015 6.02 6.02 0 016.015-6.015c1.91 0 3.701.914 4.826 2.429a6.048 6.048 0 014.826-2.43 6.02 6.02 0 016.015 6.016 6.02 6.02 0 01-6.015 6.015zm-4.826-3.696c.16 0 .312.087.39.225a5.14 5.14 0 004.436 2.571 5.122 5.122 0 005.115-5.115 5.122 5.122 0 00-5.115-5.115 5.124 5.124 0 00-4.436 2.571.451.451 0 01-.78 0 5.14 5.14 0 00-4.436-2.571 5.122 5.122 0 00-5.115 5.115 5.122 5.122 0 005.115 5.115 5.124 5.124 0 004.436-2.571.451.451 0 01.39-.225zm4.706 2.217a4.54 4.54 0 01-4.536-4.536 4.54 4.54 0 014.536-4.537 4.54 4.54 0 014.537 4.537 4.537 4.537 0 01-4.537 4.536zm0-8.173a3.639 3.639 0 00-3.636 3.637 3.639 3.639 0 003.636 3.636 3.639 3.639 0 003.637-3.636 3.639 3.639 0 00-3.637-3.637zm-9.536 8.173A4.54 4.54 0 015.62 12.52a4.54 4.54 0 014.537-4.537 4.54 4.54 0 014.536 4.537 4.537 4.537 0 01-4.536 4.536zm0-8.173A3.639 3.639 0 006.52 12.52a3.639 3.639 0 003.637 3.636 3.636 3.636 0 100-7.273zm8.545 5.676a2.04 2.04 0 01-2.04-2.04 2.04 2.04 0 012.04-2.038 2.04 2.04 0 012.038 2.039 2.043 2.043 0 01-2.038 2.039zm0-3.178a1.138 1.138 0 100 2.277 1.138 1.138 0 000-2.277zm-7.618 3.178a2.04 2.04 0 112.039-2.039 2.043 2.043 0 01-2.039 2.039zm0-3.178a1.139 1.139 0 100 2.277 1.139 1.139 0 000-2.277z" fill="#FF8A00"/></svg>