<svg width="50" height="45" viewBox="0 0 50 45" fill="none" xmlns="http://www.w3.org/2000/svg"><path d="M25.617 9.12l-2.092-2.09a3.51 3.51 0 012.092-.852V9.12zm-3.301.797c.05.8.367 1.53.867 2.102l2.102-2.102h-2.97zm3.301 3.296v-2.985l-2.112 2.112a3.5 3.5 0 002.112.873zm-2.413-5.868a3.5 3.5 0 00-.888 2.118h3.01l-2.122-2.118zm6.153 2.123a3.517 3.517 0 00-.872-2.107l-2.113 2.107h2.985zm-3.291.74v3.005a3.514 3.514 0 002.123-.888l-2.123-2.117zm0-4.036v2.97l2.097-2.098a3.501 3.501 0 00-2.097-.872zm2.434 5.837a3.528 3.528 0 00.857-2.092h-2.944l2.087 2.092zm12.123 14.46c.061.581.092 1.168.092 1.765 0 8.878-6.873 16.103-15.317 16.103-8.445 0-15.317-7.22-15.317-16.098 0-.699.045-1.388.132-2.056C5.652 23.673-.956 19.596.116 17.545c0 0 10.73-8.006 17.72-14.965 0 0 3.607-2.551 7.046-2.577 0 0 4.342-.21 7.623 2.852 0 0 16.639 13.649 17.399 13.95.668.255-2.123 5.612-9.281 9.664zM19.6 9.697a.37.37 0 00.373.368h.898a.368.368 0 00.296-.148h.556c.05.97.439 1.842 1.04 2.52l-.392.393a.381.381 0 00-.311.102l-.633.638a.367.367 0 000 .526.366.366 0 00.525 0l.638-.638a.36.36 0 00.102-.311l.393-.393a4.09 4.09 0 002.526 1.05v.572a.36.36 0 00-.148.296v.903c0 .204.168.373.372.373a.375.375 0 00.373-.373v-.903a.375.375 0 00-.148-.296V13.8a4.06 4.06 0 002.54-1.062l.42.419a.36.36 0 00.101.311l.638.638a.376.376 0 00.526 0 .376.376 0 000-.526l-.638-.637a.346.346 0 00-.311-.103l-.419-.418a4.085 4.085 0 001.03-2.51h.598a.367.367 0 00.29.143h.899a.372.372 0 00.372-.373.375.375 0 00-.372-.372h-.898a.392.392 0 00-.301.148h-.587a4.118 4.118 0 00-1.046-2.526l.428-.424a.36.36 0 00.307-.107l.637-.632a.367.367 0 000-.526.376.376 0 00-.525 0l-.638.633a.374.374 0 00-.107.316l-.424.424a4.115 4.115 0 00-2.515-1.046v-.577a.386.386 0 00.143-.296V3.8a.375.375 0 00-.373-.372.375.375 0 00-.372.372v.898c0 .123.061.23.148.296v.577a4.115 4.115 0 00-2.51 1.03l-.398-.398a.365.365 0 00-.102-.31l-.638-.639a.373.373 0 10-.526.53l.638.639a.36.36 0 00.311.102l.398.398a4.096 4.096 0 00-1.056 2.54h-.556a.367.367 0 00-.296-.147h-.898a.381.381 0 00-.378.382zm17.675 24.395l-3.108-2.393a4.338 4.338 0 01-2.321.673 4.37 4.37 0 01-4.174-5.663l-9.715-7.465c-2.643 1.923-4.586 4.832-5.347 8.22a7.434 7.434 0 01-.28-.148c-.02.306-.036.612-.036.923 0 7.659 5.878 13.884 13.097 13.884 5.256 0 9.797-3.296 11.884-8.031zm1.22-5.853c0-.224-.006-.449-.016-.668-.066.03-.123.061-.184.086-1.3-6.209-6.572-10.872-12.863-10.872-1.867 0-3.643.418-5.255 1.163l8.801 6.76a4.365 4.365 0 012.868-1.081 4.37 4.37 0 014.373 4.367 4.31 4.31 0 01-.454 1.929l2.321 1.78c.265-1.107.408-2.27.408-3.464zm-18.272 2.327a2.262 2.262 0 01-2.26-2.266c0-.81.433-1.52 1.081-1.918l3.169.857c.168.322.275.679.275 1.061a2.27 2.27 0 01-2.265 2.266zm1.628-1.98a1.162 1.162 0 10-1.163 1.158c.637 0 1.157-.52 1.163-1.158zm-4.587-4.464l-.965.01v1.505l2.74.745a2.23 2.23 0 011.179-.347c.867 0 1.607.495 1.99 1.204l1.597.434-6.541-3.551zm4.183 12.21h7.894v-.771h-7.894v.77z" fill="#FF8A00"/></svg>