<svg width="50" height="36" viewBox="0 0 50 36" fill="none" xmlns="http://www.w3.org/2000/svg"><path d="M23.02 24.061l-.826-2.367c-.806-1.388-2.214-2.168-5.811-3.832 1.714-.79 2.923-1.387 3.8-1.928L14.624 0 6.23 24.04C2.592 24.986 0 26.623 0 28.955c0 8.301 29.168 8.301 29.168 0 0-2.316-2.55-3.949-6.148-4.893zm-.137 6.71c-4.643 1.576-11.965 1.601-16.597 0-2.347-.812-2.78-2.138-1.306-3.072 3.724 3.332 15.525 3.337 19.265.01 1.53.944 1.03 2.25-1.362 3.061zm1.49-17.348a6.675 6.675 0 01-4.434 4.434 6.676 6.676 0 014.433 4.434 6.676 6.676 0 014.434-4.434 6.666 6.666 0 01-4.434-4.433zm1.193-9.826L21.98 7.184l24.433 24.433L50 28.031 25.566 3.597zm2.801 7.832l-4.245-4.245 1.444-1.444 4.245 4.245-1.444 1.444zm1.909-7.041a5.028 5.028 0 013.341 3.342 5.028 5.028 0 013.342-3.342 5.028 5.028 0 01-3.342-3.342 5.008 5.008 0 01-3.341 3.342zM35.74 9.31a3.546 3.546 0 012.362 2.363 3.546 3.546 0 012.362-2.363 3.546 3.546 0 01-2.362-2.362A3.546 3.546 0 0135.74 9.31zm5.755-8.296a4.073 4.073 0 01-2.7 2.7 4.062 4.062 0 012.7 2.698 4.062 4.062 0 012.699-2.699 4.062 4.062 0 01-2.7-2.699z" fill="#FF8A00"/></svg>