<svg width="40" height="40" viewBox="0 0 40 40" fill="none" xmlns="http://www.w3.org/2000/svg"><path d="M23.655.053c-.472.206-.644.541-.918 1.794-.155.67-.3 1.219-.327 1.219-.025-.009-.386-.567-.815-1.253C20.668.319 20.419.062 19.87.062c-.721 0-1.236.472-1.236 1.142 0 .42 0 .411 1.656 3.038l1.408 2.215-1.124 5.039c-.618 2.781-1.142 5.047-1.168 5.047-.025 0-1.236-1.871-2.686-4.154l-2.652-4.164.617-2.755c.447-1.966.601-2.842.567-3.048a1.224 1.224 0 00-.841-.91c-.447-.11-1.013.078-1.262.43-.103.146-.3.806-.481 1.648-.172.772-.335 1.485-.378 1.57-.051.13-.214-.076-.858-1.09-.687-1.081-.841-1.279-1.159-1.424-.446-.224-.678-.224-1.133-.018-.463.215-.72.627-.72 1.185 0 .395.06.532.763 1.622.421.653.764 1.202.756 1.21-.009.01-.721-.145-1.571-.334l-1.554-.343-.394.172c-.842.369-.953 1.544-.19 2.042.112.069 1.391.404 2.842.73 1.45.326 2.678.627 2.73.678.12.12 5.365 8.361 5.339 8.387-.017.017-8.438-1.829-9.46-2.077-.128-.026-.652-.79-1.716-2.456-1.443-2.283-1.554-2.429-1.906-2.583-.49-.215-.876-.146-1.28.223-.266.24-.317.343-.343.747-.043.455-.034.48.67 1.58 1.004 1.588 1.047 1.674.944 1.674-.052 0-.695-.138-1.434-.3-1.493-.344-1.794-.327-2.197.102-.447.48-.533.987-.275 1.536.223.472.523.618 1.982.944.739.164 1.365.31 1.374.327.017.008-.567.394-1.288.84-1.408.893-1.605 1.1-1.605 1.7 0 .687.49 1.202 1.142 1.202.411 0 .274.077 2.918-1.605l2.215-1.408 4.695 1.039c2.584.566 4.764 1.064 4.85 1.099.146.06-.73.635-7.974 5.227-.163.103-.507.043-2.867-.49-1.477-.326-2.782-.6-2.893-.6-.352 0-.781.257-.979.575-.334.54-.12 1.356.447 1.665.077.035.772.206 1.545.378.772.172 1.476.334 1.554.369.12.043-.103.214-.893.704-.575.352-1.159.738-1.288.85-1.004.832-.386 2.412.893 2.3.317-.026.626-.172 1.579-.781.644-.403 1.185-.73 1.202-.721.008.017-.137.704-.318 1.527-.292 1.254-.326 1.554-.257 1.803.266.91 1.544 1.167 2.077.42.111-.163.369-1.132.772-2.926.335-1.477.618-2.704.636-2.721.094-.086 8.326-5.314 8.352-5.288.008.009-.447 2.138-1.022 4.73-.695 3.142-1.09 4.755-1.184 4.85-.077.077-1.1.747-2.284 1.485-1.175.746-2.274 1.485-2.42 1.648-.25.257-.284.343-.284.764 0 .412.035.515.284.781.3.326.712.464 1.133.378.146-.035.84-.43 1.545-.884.824-.524 1.296-.782 1.313-.713.017.069-.094.627-.24 1.245-.138.626-.258 1.295-.258 1.484 0 1.194 1.39 1.769 2.215.91.223-.223.309-.43.498-1.262.12-.55.266-1.184.326-1.416l.103-.43.824 1.289c.867 1.364 1.176 1.665 1.674 1.665.712 0 1.227-.507 1.227-1.21 0-.36-.12-.575-1.493-2.747l-1.494-2.352 1.056-4.747c.584-2.618 1.073-4.773 1.099-4.79.026-.026 1.296 1.923 2.824 4.335l2.79 4.377-.584 2.601c-.326 1.434-.592 2.696-.592 2.799 0 .326.266.798.55.97.334.206.935.214 1.26.017.361-.215.542-.661.86-2.147.154-.72.308-1.313.334-1.313.034 0 .318.43.644.953.66 1.081.892 1.279 1.536 1.279.695 0 1.142-.378 1.288-1.082.085-.377-.086-.79-.747-1.837-.318-.498-.541-.91-.498-.927.043-.009.678.111 1.425.283 1.537.344 1.923.37 2.292.146.283-.163.583-.669.583-.978-.008-.37-.3-.876-.609-1.04-.215-.11-4.36-1.072-5.503-1.278-.085-.017-1.218-1.709-2.824-4.232-1.466-2.316-2.702-4.265-2.745-4.342-.06-.129-.035-.137.249-.069.171.035 2.42.533 4.995 1.108a669.73 669.73 0 014.808 1.073c.068.026.746 1.013 1.493 2.198.756 1.193 1.46 2.266 1.571 2.403.24.283.738.446 1.142.37.343-.078.824-.542.901-.885.094-.438-.017-.721-.858-2.043-.438-.695-.799-1.279-.782-1.288.009-.008.516.095 1.125.24 1.227.293 1.52.284 1.931-.068.713-.592.67-1.545-.094-2.103-.112-.077-.721-.266-1.348-.403-.635-.137-1.158-.266-1.176-.283-.017-.017.55-.395 1.253-.841 1.383-.867 1.674-1.125 1.76-1.588.155-.85-.713-1.623-1.52-1.34-.145.052-1.304.756-2.574 1.563l-2.318 1.476-4.979-1.108c-2.73-.6-4.97-1.124-4.97-1.159 0-.102 8.713-5.605 8.867-5.588.086 0 1.297.266 2.705.575 1.733.387 2.635.558 2.824.515.867-.163 1.236-1.236.66-1.922-.248-.3-.368-.344-2.008-.704-.687-.146-1.27-.292-1.305-.327-.034-.025.369-.326.893-.652.523-.335 1.03-.704 1.116-.824.446-.6.197-1.545-.498-1.889-.593-.283-.902-.197-2.104.558-.566.36-1.021.601-1.021.533 0-.06.137-.713.3-1.451.343-1.537.37-1.889.129-2.266-.438-.73-1.623-.704-2 .034-.069.129-.37 1.322-.661 2.644a254.28 254.28 0 01-.61 2.713c-.068.291-.291.446-4.377 3.03-2.361 1.502-4.31 2.712-4.335 2.687-.043-.043 2.077-9.7 2.189-9.975.043-.094 1.107-.824 2.369-1.63 1.262-.8 2.352-1.537 2.42-1.64.481-.739.103-1.734-.712-1.889-.438-.077-.584-.017-1.966.85-.713.446-1.296.781-1.313.747-.009-.034.077-.472.197-.979.326-1.382.283-1.785-.249-2.274-.172-.164-.335-.215-.72-.24-.266-.01-.567.007-.661.05z" fill="#FF8A00"/></svg>