<svg width="33" height="47" viewBox="0 0 33 47" fill="none" xmlns="http://www.w3.org/2000/svg"><path d="M13.82.146C6.638 1.073 2.224 5.975.6 14.842c-.489 2.64-.598 4.085-.598 7.672-.01 2.77.02 3.527.17 4.433.657 3.996 2.072 7.622 4.283 10.96 1.475 2.222 3.557 4.533 5.301 5.868.498.379.947.747.996.807.2.23 2.461 1.365 3.278 1.644a9.21 9.21 0 001.614.389c2.859.398 6.486-1.445 9.883-5.012 3.767-3.955 6.397-9.305 7.204-14.656.488-3.228.299-8.369-.458-12.354-.877-4.653-2.47-8.05-4.932-10.521-1.903-1.913-4.055-3.08-6.785-3.657-1.983-.428-4.653-.538-6.735-.269zm5.39 1.694c.479.08.907.16.937.19.04.05-1.115 5.788-1.384 6.854l-.1.379h-5.27l-.05-.23c-.2-.806-1.435-6.784-1.405-6.814.01-.02.448-.12.966-.24 1.714-.368 4.364-.428 6.307-.139zm4.026 1.215c.986.478 1.913 1.106 2.57 1.744l.41.388-.33 1.415a62.457 62.457 0 01-.776 2.96c-.698 2.39-.668 2.31-.907 2.25-.11-.03-1.046-.457-2.083-.956-1.664-.817-1.873-.937-1.833-1.126.02-.12.379-1.803.787-3.736l.737-3.517.25.06c.139.04.667.27 1.175.518zM11.061 6.284c.528 2.51.687 3.447.607 3.497-.348.229-3.646 1.973-3.716 1.973-.209 0-2.072-5.4-1.982-5.739.06-.249 1.175-1.325 1.992-1.933.648-.478 2.142-1.305 2.282-1.265.05.02.418 1.574.817 3.467zm17.017 1.215c1.535 2.471 2.49 5.66 3.019 10.103.13 1.125.17 2.291.18 4.912 0 3.168-.02 3.537-.23 4.712-.677 3.717-1.973 6.975-3.985 10.004-.3.458-.578.826-.628.826-.05 0-2.252-1.892-4.882-4.204-2.64-2.322-4.941-4.304-5.121-4.414-.259-.15-.389-.17-.588-.1-.14.06-2.271 2.113-4.732 4.564l-4.484 4.463-.528-.757C3.828 34.341 2.373 30.544 1.715 26.2c-.18-1.235-.15-5.799.06-7.97.389-3.996 1.086-6.806 2.322-9.366l.558-1.146.15.449c2.51 7.691 6.176 14.506 9.843 18.322.518.548 1.056 1.017 1.195 1.046.389.1.847-.18 1.834-1.115 2.33-2.192 4.782-5.78 6.456-9.446 1.315-2.87 2.49-6.297 3.258-9.485.09-.389.19-.717.2-.717.02 0 .238.329.487.727zm-9.804 3.577c0 .07-.189 1.036-.418 2.142l-.419 2.023h-2.799l-.429-2.023c-.229-1.106-.419-2.072-.419-2.142 0-.09.519-.12 2.242-.12 1.724 0 2.242.03 2.242.12zm-5.699 2.391c.23 1.116.419 2.093.419 2.172-.01.15-2.272 1.893-2.461 1.893-.09 0-1.196-2.281-1.804-3.696l-.199-.458 1.764-.957a82.428 82.428 0 011.803-.966c.03 0 .25.906.478 2.012zm9.256-.917c1.027.499 1.873.917 1.903.937.02.03-.02.22-.08.429-.129.388-1.554 3.607-1.633 3.686-.07.08-2.95-1.893-2.95-2.012 0-.07.18-.966.4-1.993.218-1.026.398-1.883.398-1.903 0-.08.149-.01 1.962.856zm-4.802 4.604c-.11.468-.947 4.473-.947 4.533 0 .29-.16-.349-.548-2.212a97.514 97.514 0 00-.508-2.37c-.05-.15.04-.17 1.006-.17 1.037 0 1.047 0 .997.219zm-2.9 3.706c.37 1.743.648 3.188.628 3.208-.149.15-3.357-4.573-3.357-4.922 0-.15 1.923-1.614 2.002-1.524.04.03.369 1.485.728 3.238zm5.072-3.059c.229.15.767.518 1.195.807l.778.538-.319.568c-.429.757-1.335 2.093-2.042 3.01-.728.936-1.634 1.952-1.634 1.833 0-.12 1.385-6.725 1.445-6.905.059-.17.099-.16.577.15zm-.299 15.941a92.069 92.069 0 001.295 1.126c.08.07-1.165 1.036-1.454 1.156-.09.03-.28-.468-.608-1.524-.27-.867-.508-1.634-.528-1.704-.1-.249.12-.09 1.295.946zm-4.972.788c-.249.816-.478 1.504-.498 1.524-.06.07-1.036-.907-1.036-1.026 0-.11 1.913-2.073 1.963-2.013.02.02-.18.697-.429 1.515zm2.99 1.654l.238.777h-2.251l.239-.777c.13-.42.378-1.236.558-1.814l.318-1.036.339 1.036c.18.578.429 1.395.558 1.814zm5.31.458l.518.478-1.435 1.435c-.787.787-1.454 1.415-1.474 1.395-.12-.17-.658-2.142-.598-2.202.329-.31 2.202-1.584 2.322-1.575.079 0 .378.21.667.47zm-10.213.389c.449.438.778.856.778.966 0 .279-.528 1.863-.608 1.833-.11-.05-2.182-2.37-2.182-2.44 0-.11 1.026-1.127 1.136-1.127.06 0 .458.35.877.768zm12.723 1.813c.628.567.638.587.489.827-.489.737-3.896 3.766-4.255 3.766-.04 0-.18-.358-.308-.807l-.23-.807 1.784-1.784c.977-.976 1.803-1.783 1.833-1.783.03.01.339.269.687.588zm-14.586 1.265c.767.857 1.405 1.614 1.425 1.694.04.18-.27 1.136-.369 1.136-.229 0-2.6-2.142-3.218-2.92l-.308-.378.538-.548c.289-.3.538-.539.538-.539.01.001.637.698 1.394 1.555zm7.881-.389l.319 1.026h-4.643L14 39.82c.16-.498.309-.976.339-1.046.03-.1.428-.12 1.713-.1l1.664.03.32 1.016zm1.136 3.667c.21.648.26.907.18.956-.07.04-.478.2-.917.34-1.544.508-2.89.438-4.633-.26-1.066-.428-1.076-.438-.857-1.205.1-.349.2-.658.22-.708.03-.04 1.325-.06 2.878-.05l2.85.03.28.897z" fill="#FF8A00"/><path d="M3.589 12.98c-.349.348-.738 2.221-.967 4.592-.15 1.575-.06 4.773.16 6.188.578 3.716 1.833 6.725 3.975 9.584.668.897 1.007 1.126 1.445.957.369-.13 7.024-5.142 7.224-5.43.19-.27.199-.668.03-.877-.07-.09-.458-.379-.867-.648-1.814-1.196-4.026-3.228-5.421-4.962-2.073-2.59-3.547-5.609-4.095-8.389-.12-.607-.22-.846-.409-1.026-.328-.289-.777-.289-1.075.01zm1.713 6.505c1.524 3.039 4.224 6.158 7.323 8.5l.668.497-2.6 1.963c-1.436 1.076-2.63 1.913-2.67 1.873-2.043-2.79-3.23-5.828-3.717-9.505-.14-1.036-.16-5.071-.03-5.28.05-.08.15.04.299.408a25 25 0 00.727 1.544zM27.85 12.92c-.16.129-.27.438-.41 1.045-.827 3.796-2.73 7.184-5.728 10.203-1.316 1.325-2.152 2.022-3.667 3.078-1.066.738-1.255 1.007-1.075 1.475.16.398 7.193 5.65 7.572 5.65.448 0 .976-.589 2.102-2.293 1.624-2.47 2.7-5.54 3.149-8.967.199-1.574.15-5.689-.1-7.203-.289-1.754-.528-2.66-.767-2.92-.27-.288-.768-.318-1.077-.069zm.477 6.964c.03 4.294-1.086 8.3-3.198 11.467-.379.569-.697 1.027-.717 1.027-.09 0-5.091-3.816-5.091-3.886 0-.05.229-.25.498-.458 3.637-2.75 6.546-6.377 8.17-10.203l.19-.448.069.597c.04.33.07 1.186.08 1.904z" fill="#FF8A00"/></svg>