<svg version="1.1" id="Слой_1" xmlns="http://www.w3.org/2000/svg" x="0" y="0" viewBox="0 0 400 400" xml:space="preserve"><style>.st0{fill:#fff}</style><path class="st0" d="M-4127.92-1205l-150.35 151.5h-454.5v374.15h376.46v-117.06h-140.02l-137.72-137.73h482.04v254.79l-151.5 151.5h-479.74l-153.8-151.5v-371.18l153.8-154.48h655.33zm1829.47 677.16h-204.3V-721.8h-412.03v195.11l-204.29 115.92v-642.72l153.8-151.5h513.03l153.8 151.5v525.65zm-204.3-343.17v-182.49h-412.03v182.49h412.03zM-449.5-679.35L-601-527.85h-633.54v-676.18l204.29-118.04v642.72h580.75zm1791.57 151.51h-204.29V-721.8H725.74v195.11L521.45-410.78v-642.72L675.23-1205h513.04l153.8 151.5v525.66zm-204.29-343.17v-182.49H725.74v182.49h412.04z"/><path d="M3297.77-527.84h-241.65l-217.15-217.55-217.18 217.55h-243.25l338.81-337.77L2378.51-1205h243.27l217.2 217.56L3056.16-1205h241.62l-338.81 339.39 338.8 337.77z" fill="#00ff91"/><path class="st0" d="M5219.22-1205l-355.95 357.86v319.24l-204.29 117.12v-436.38L4301.38-1205h242.82l216.92 218.07L4978.03-1205h241.19z"/><radialGradient id="SVGID_1_" cx="-452.916" cy="2891.984" r="973.562" gradientTransform="matrix(-2.4758 2.5908 -.6657 .3625 3817.11 -1009.814)" gradientUnits="userSpaceOnUse"><stop offset="0" stop-color="#00ff91"/><stop offset=".139" stop-color="#00ff91" stop-opacity=".861"/><stop offset="1" stop-color="#00ff91" stop-opacity="0"/></radialGradient><path d="M504 1490.88c-314.53 164.35 587.95-912.33 2015.75-2404.84s2840.24-2835.67 3154.77-3000.02c314.54-164.36-587.95 912.33-2015.74 2404.84S818.54 1326.52 504 1490.88z" fill="url(#SVGID_1_)"/><radialGradient id="SVGID_2_" cx="3634.028" cy="-4317.763" r="596.026" gradientTransform="matrix(1.8467 -1.9666 .5195 -.3837 -1499.476 4390.493)" gradientUnits="userSpaceOnUse"><stop offset="0" stop-color="#b2fbc0"/><stop offset=".077" stop-color="#88fcb5" stop-opacity=".923"/><stop offset=".157" stop-color="#64fdab" stop-opacity=".843"/><stop offset=".245" stop-color="#45fda3" stop-opacity=".755"/><stop offset=".341" stop-color="#2cfe9c" stop-opacity=".659"/><stop offset=".447" stop-color="#18fe97" stop-opacity=".553"/><stop offset=".569" stop-color="#0aff94" stop-opacity=".431"/><stop offset=".721" stop-color="#02ff92" stop-opacity=".279"/><stop offset="1" stop-color="#00ff91" stop-opacity="0"/></radialGradient><path d="M4010.39-2218.88c132.29-89.73-292.29 402.3-948.32 1098.98S1766.97 214.29 1634.68 304.02C1502.39 393.75 1926.97-98.28 2583-794.96s1295.1-1334.19 1427.39-1423.92z" fill="url(#SVGID_2_)"/></svg>