<svg version="1.1" id="Слой_1" xmlns="http://www.w3.org/2000/svg" x="0" y="0" viewBox="0 0 400 400" xml:space="preserve"><style>.st0{fill:#fff}</style><path class="st0" d="M-4127.9-1205l-150.3 151.5h-454.5v374.2h376.5v-117.1h-140l-137.7-137.7h482v254.8l-151.5 151.5h-479.7l-153.8-151.5v-371.2l153.8-154.5h655.2zm1829.4 677.2h-204.3v-194h-412v195.1l-204.3 115.9v-642.7l153.8-151.5h513l153.8 151.5v525.7zM-2502.8-871v-182.5h-412V-871h412zm2053.3 191.7L-601-527.8h-633.5V-1204l204.3-118v642.7h580.7zm1791.6 151.5h-204.3v-194h-412v195.1L521.5-410.8v-642.7L675.2-1205h513l153.8 151.5v525.7zM1137.8-871v-182.5h-412V-871h412z"/><path d="M3297.8-527.8h-241.6L2839-745.4l-217.2 217.5h-243.3l338.8-337.8-338.8-339.3h243.3L2839-987.4l217.2-217.6h241.6L2959-865.6l338.8 337.8z" fill="#00ff91"/><path class="st0" d="M5219.2-1205l-355.9 357.9v319.2L4659-410.8v-436.4L4301.4-1205h242.8l216.9 218.1L4978-1205h241.2z"/><radialGradient id="SVGID_1_" cx="-452.916" cy="2891.984" r="973.562" gradientTransform="matrix(-2.4758 2.5908 -.6657 .3625 3817.11 -1009.814)" gradientUnits="userSpaceOnUse"><stop offset="0" stop-color="#00ff91"/><stop offset=".139" stop-color="#00ff91" stop-opacity=".861"/><stop offset="1" stop-color="#00ff91" stop-opacity="0"/></radialGradient><path d="M504 1490.9C189.5 1655.2 1092 578.5 2519.7-914S5360-3749.6 5674.5-3914c314.5-164.4-587.9 912.3-2015.7 2404.8S818.5 1326.5 504 1490.9z" fill="url(#SVGID_1_)"/><radialGradient id="SVGID_2_" cx="3634.028" cy="-4317.763" r="596.026" gradientTransform="matrix(1.8467 -1.9666 .5195 -.3837 -1499.476 4390.493)" gradientUnits="userSpaceOnUse"><stop offset="0" stop-color="#b2fbc0"/><stop offset=".077" stop-color="#88fcb5" stop-opacity=".923"/><stop offset=".157" stop-color="#64fdab" stop-opacity=".843"/><stop offset=".245" stop-color="#45fda3" stop-opacity=".755"/><stop offset=".341" stop-color="#2cfe9c" stop-opacity=".659"/><stop offset=".447" stop-color="#18fe97" stop-opacity=".553"/><stop offset=".569" stop-color="#0aff94" stop-opacity=".431"/><stop offset=".721" stop-color="#02ff92" stop-opacity=".279"/><stop offset="1" stop-color="#00ff91" stop-opacity="0"/></radialGradient><path d="M4010.4-2218.9c132.3-89.7-292.3 402.3-948.3 1099S1767 214.3 1634.7 304C1502.4 393.7 1927-98.3 2583-795s1295.1-1334.1 1427.4-1423.9z" fill="url(#SVGID_2_)"/></svg>