<?xml version="1.0" encoding="utf-8"?>
<!-- Generator: Adobe Illustrator 24.0.2, SVG Export Plug-In . SVG Version: 6.00 Build 0)  -->
<svg version="1.1" id="Слой_1" xmlns="http://www.w3.org/2000/svg" xmlns:xlink="http://www.w3.org/1999/xlink" x="0px" y="0px"
	 viewBox="0 0 400 400" style="enable-background:new 0 0 400 400;" xml:space="preserve">
<style type="text/css">
	.st0{fill:#FFFFFF;}
	.st1{fill:#00FF91;}
	.st2{fill:url(#SVGID_1_);}
	.st3{fill:url(#SVGID_2_);}
</style>
<path class="st0" d="M-4127.9-1205l-150.3,151.5h-454.5v374.2h376.5v-117.1h-140l-137.7-137.7h482v254.8l-151.5,151.5h-479.7
	l-153.8-151.5v-371.2l153.8-154.5H-4127.9z"/>
<path class="st0" d="M-2298.5-527.8h-204.3v-194h-412v195.1l-204.3,115.9v-642.7l153.8-151.5h513l153.8,151.5V-527.8z M-2502.8-871
	v-182.5h-412V-871H-2502.8z"/>
<path class="st0" d="M-449.5-679.3L-601-527.8h-633.5V-1204l204.3-118v642.7H-449.5z"/>
<path class="st0" d="M1342.1-527.8h-204.3v-194h-412v195.1L521.5-410.8v-642.7L675.2-1205h513l153.8,151.5V-527.8z M1137.8-871
	v-182.5h-412V-871H1137.8z"/>
<path class="st1" d="M3297.8-527.8h-241.6L2839-745.4l-217.2,217.5h-243.3l338.8-337.8L2378.5-1205h243.3L2839-987.4l217.2-217.6
	h241.6L2959-865.6L3297.8-527.8z"/>
<path class="st0" d="M5219.2-1205l-355.9,357.9v319.2L4659-410.8v-436.4L4301.4-1205h242.8l216.9,218.1L4978-1205H5219.2z"/>
<radialGradient id="SVGID_1_" cx="-452.9162" cy="2891.9841" r="973.5615" gradientTransform="matrix(-2.4758 2.5908 -0.6657 0.3625 3817.1104 -1009.814)" gradientUnits="userSpaceOnUse">
	<stop  offset="0" style="stop-color:#00FF91"/>
	<stop  offset="0.139" style="stop-color:#00FF91;stop-opacity:0.861"/>
	<stop  offset="1" style="stop-color:#00FF91;stop-opacity:0"/>
</radialGradient>
<path class="st2" d="M504,1490.9C189.5,1655.2,1092,578.5,2519.7-914S5360-3749.6,5674.5-3914
	c314.5-164.4-587.9,912.3-2015.7,2404.8S818.5,1326.5,504,1490.9z"/>
<radialGradient id="SVGID_2_" cx="3634.0278" cy="-4317.7627" r="596.0263" gradientTransform="matrix(1.8467 -1.9666 0.5195 -0.3837 -1499.4764 4390.4932)" gradientUnits="userSpaceOnUse">
	<stop  offset="0" style="stop-color:#B2FBC0"/>
	<stop  offset="7.662487e-02" style="stop-color:#88FCB5;stop-opacity:0.9234"/>
	<stop  offset="0.1571" style="stop-color:#64FDAB;stop-opacity:0.8429"/>
	<stop  offset="0.2452" style="stop-color:#45FDA3;stop-opacity:0.7548"/>
	<stop  offset="0.3407" style="stop-color:#2CFE9C;stop-opacity:0.6593"/>
	<stop  offset="0.4466" style="stop-color:#18FE97;stop-opacity:0.5534"/>
	<stop  offset="0.5688" style="stop-color:#0AFF94;stop-opacity:0.4312"/>
	<stop  offset="0.7214" style="stop-color:#02FF92;stop-opacity:0.2786"/>
	<stop  offset="1" style="stop-color:#00FF91;stop-opacity:0"/>
</radialGradient>
<path class="st3" d="M4010.4-2218.9c132.3-89.7-292.3,402.3-948.3,1099S1767,214.3,1634.7,304C1502.4,393.7,1927-98.3,2583-795
	S3878.1-2129.1,4010.4-2218.9z"/>
</svg>
