<svg height="32" viewBox="0 0 32 32" width="32" xmlns="http://www.w3.org/2000/svg"><linearGradient gradientTransform="matrix(1 0 0 -1 -290 -347)" gradientUnits="userSpaceOnUse" id="a" x1="314.001" x2="297.998" y1="-349.142" y2="-376.86"><stop offset="0" stop-color="#ffe254"/><stop offset="1" stop-color="#ffb255"/></linearGradient><circle cx="16" cy="16" r="16" fill="url(#a)"/><path d="M16 27c6.075 0 11-4.925 11-11H5c0 6.075 4.925 11 11 11z" fill="#f52c5b"/><path d="M16 19c3.416 0 6.468 1.557 8.484 4A10.944 10.944 0 0027 16H5c0 2.659.944 5.098 2.515 7 2.017-2.443 5.069-4 8.485-4zm10.85-5.62a.512.512 0 01-.64.33l-4.81-1.47c-.271-.08-.4-.36-.4-.62v-.24c0-.26.13-.54.4-.62l4.84-1.47c.27-.08.55.06.63.33.08.26-.07.54-.341.62L22.45 11.5l4.079 1.26c.261.08.401.36.321.62zM5.042 9.62c.08-.271.38-.41.64-.33l4.864 1.47c.27.08.454.36.454.62v.24c0 .26-.184.54-.454.62l-4.867 1.47a.513.513 0 01-.644-.33.493.493 0 01.333-.62l4.076-1.26-4.082-1.26a.494.494 0 01-.32-.62z" fill="#212731"/></svg>