<svg width="183" height="116" viewBox="0 0 183 116" fill="none" xmlns="http://www.w3.org/2000/svg">
<path d="M0 58C0 25.9675 25.9675 0 58 0H125C157.033 0 183 25.9675 183 58C183 90.0325 157.033 116 125 116H58C25.9675 116 0 90.0325 0 58Z" fill="#00BC87"/>
<path d="M85.0398 29.3933C84.0551 29.8189 83.1765 30.777 82.8041 31.7627C82.6173 32.2423 82.5112 35.7556 82.5112 41.425V50.3137H84.6408H86.7704V41.7964V33.2791H112.322H137.874V52.4433V71.6076H121.239H104.603V73.7372V75.8933L122.01 75.8127C139.124 75.7331 139.444 75.7331 140.163 75.1739C140.562 74.8811 141.148 74.2954 141.441 73.8964C142 73.178 142 72.9647 142 52.4433C142 31.9219 142 31.7086 141.441 30.9903C141.148 30.5913 140.562 30.0056 140.163 29.7127C139.445 29.1535 139.232 29.1535 112.642 29.1005C90.7092 29.0474 85.7051 29.1005 85.0398 29.3933Z" fill="white"/>
<path d="M63.3202 31.0963C58.3692 32.7463 55.2549 37.8841 56.16 42.8882C57.1978 48.6371 62.5478 52.4973 68.2713 51.5922C71.7049 51.0861 74.6855 48.8239 76.2029 45.6035C76.9753 43.9535 77.0549 43.5545 77.0549 41.2647C77.0284 37.9912 76.3896 36.2872 74.3396 34.078C72.2366 31.7892 70.2141 30.8576 67.1529 30.7239C65.3692 30.6443 64.4641 30.7239 63.3202 31.0963Z" fill="white"/>
<path d="M114.318 53.8005C108.915 58.0597 104.364 61.626 104.257 61.7586C104.125 61.8648 104.337 62.5842 104.736 63.3556L105.428 64.7393L106.546 63.8076C107.158 63.3291 111.63 59.8148 116.448 56.0352C121.292 52.2556 125.338 49.0617 125.472 48.9546C125.711 48.7413 124.646 46.0536 124.327 46.0536C124.247 46.0556 119.748 49.5423 114.318 53.8005Z" fill="white"/>
<path d="M53.8449 54.8392C48.0959 55.4515 44.05 58.1668 42.5327 62.478C42.0265 63.9157 42 64.6341 42 74.0565C42 85.5014 41.9735 85.3157 44.1827 86.4596C46.2327 87.5239 48.4684 86.9922 49.8786 85.0759C50.4112 84.3841 50.4378 83.9575 50.5174 75.9729L50.5969 67.6147H52.7H54.8296V76.931V86.2473H66.5408H78.252V76.931V67.6147H80.3816H82.5112V72.0331C82.5112 76.1055 82.5643 76.531 83.0969 77.5157C84.1347 79.3524 86.3969 80.2575 88.1275 79.5116C88.6337 79.2984 92.2796 76.9565 96.2194 74.2943C102.342 70.1953 103.486 69.3167 104.018 68.3586C104.764 66.9749 104.764 66.1759 103.992 64.6851C103.193 63.0882 101.969 62.2892 100.292 62.2892C98.7479 62.2892 98.003 62.6616 94.1694 65.3239L91.3214 67.3198L91.1888 66.4678C91.1092 65.9882 90.9755 65.0576 90.8959 64.3647C90.5234 61.4902 87.9418 58.1096 84.9867 56.5923C82.4316 55.3147 80.0357 54.8086 75.5908 54.6494L71.4653 54.4902L69.0959 58.4055C67.8184 60.5351 66.6735 62.2912 66.5408 62.2912C66.4347 62.2912 65.2898 60.5616 63.9857 58.4321L61.6163 54.5729L58.6888 54.5994C57.0918 54.6259 54.8827 54.7321 53.8449 54.8392Z" fill="white"/>
</svg>
