<svg width="183" height="116" viewBox="0 0 183 116" fill="none" xmlns="http://www.w3.org/2000/svg">
<path d="M0 58C0 25.9675 25.9675 0 58 0H125C157.033 0 183 25.9675 183 58C183 90.0325 157.033 116 125 116H58C25.9675 116 0 90.0325 0 58Z" fill="#7100D0"/>
<path d="M102.395 38.0764C101.032 38.6301 100.38 39.7949 100.459 41.5739L100.518 42.8973L97.4558 47.6793C93.4445 53.9036 94.1558 53.7654 89.6113 49.2403L86.1926 45.8615V44.9127C86.1926 41.6322 82.122 40.1706 79.9285 42.6599C79.1977 43.49 78.9797 44.3989 79.1578 45.7622L79.2765 46.7111L77.0042 49.9711C75.4832 52.1451 74.7319 53.3897 74.7319 53.7449C74.7319 54.8319 76.1148 55.5822 77.1035 55.0489C77.301 54.9506 78.4669 53.4481 79.6726 51.7091L81.8855 48.5678L83.0114 48.489L84.1179 48.3907L87.4772 51.6712C90.7177 54.8125 90.8365 54.9711 90.9542 55.88C91.1323 57.2035 91.685 58.0336 92.7126 58.5474C93.8191 59.1206 94.6093 59.1206 95.6768 58.5474C97.1395 57.7767 97.7915 55.9988 97.1784 54.4573C97.119 54.2792 98.2848 52.2833 100.181 49.3395L103.284 44.5186L104.272 44.2812C106.051 43.8267 107.176 42.0283 106.722 40.3292C106.229 38.4715 104.133 37.3845 102.395 38.0764Z" fill="white"/>
<rect x="62.1167" y="30.3597" width="56.6965" height="36.3279" rx="4" stroke="white" stroke-width="4"/>
<path d="M54.8241 57.3846C53.0462 57.839 51.6029 58.9455 50.7933 60.487C48.8967 64.0633 49.608 70.7225 52.1567 73.3305C52.6111 73.8044 52.9469 74.1995 52.8875 74.2394C52.8476 74.2793 52.3737 74.4768 51.821 74.6744C49.4105 75.5434 45.4391 77.8361 43.739 79.3377C42.3756 80.523 42.1587 81.2742 42.0788 85.4043L42 89H91.8919H141.803L141.941 87.8741C142.099 86.5506 141.922 82.7563 141.606 81.4923C141.349 80.3459 140.282 79.22 137.97 77.699C136.212 76.5332 132.695 74.7153 131.667 74.4584C130.996 74.2998 131.015 74.2015 131.825 73.4113C133.386 71.8903 134.196 69.2813 134.196 65.6856C134.196 62.228 133.742 60.7255 132.181 59.1645C130.718 57.7019 129.573 57.2874 127.103 57.2874C125.7 57.3068 125.128 57.3856 124.376 57.7418C122.914 58.3938 121.985 59.2239 121.333 60.488C119.437 64.0643 120.148 70.7235 122.697 73.3315C123.151 73.8054 123.487 74.2005 123.427 74.2404C123.389 74.2803 122.914 74.4779 122.361 74.6754C120.919 75.1892 118.409 76.4738 116.888 77.4615L115.544 78.3111L113.726 77.2036C111.908 76.0971 108.372 74.3776 107.897 74.3776C107.483 74.3776 107.601 74.1012 108.313 73.4093C109.874 71.8883 110.684 69.2793 110.684 65.6835C110.684 62.226 110.23 60.7234 108.669 59.1625C107.206 57.6998 106.061 57.2853 103.591 57.2853C102.188 57.3048 101.616 57.3836 100.864 57.7398C99.4017 58.3918 98.4733 59.2219 97.8213 60.4859C95.9247 64.0622 96.6361 70.7214 99.1847 73.3294C99.6392 73.8034 99.9749 74.1984 99.9155 74.2384C99.8766 74.2783 99.4017 74.4758 98.849 74.6734C97.4068 75.1872 94.8971 76.4717 93.3761 77.4595L92.0321 78.309L90.2123 77.2036C88.3944 76.0971 84.8581 74.3776 84.3832 74.3776C83.9686 74.3776 84.0863 74.1012 84.7977 73.4093C86.3586 71.8883 87.1693 69.2793 87.1693 65.6835C87.1693 62.226 86.7148 60.7234 85.1539 59.1625C83.6912 57.6998 82.5459 57.2853 80.0761 57.2853C78.6728 57.3048 78.1006 57.3836 77.3493 57.7398C75.8867 58.3918 74.9583 59.2219 74.3063 60.4859C72.4097 64.0622 73.121 70.7214 75.6697 73.3294C76.1241 73.8034 76.4599 74.1984 76.4005 74.2384C76.3606 74.2783 75.8867 74.4758 75.334 74.6734C73.8918 75.1872 71.382 76.4717 69.861 77.4595L68.5171 78.309L66.6993 77.2036C64.8815 76.0971 61.3451 74.3776 60.8702 74.3776C60.4556 74.3776 60.5733 74.1012 61.2847 73.4093C62.8456 71.8883 63.6563 69.2793 63.6563 65.6835C63.6563 62.226 63.2018 60.7234 61.6409 59.1625C60.8702 58.4112 60.1987 57.9373 59.5262 57.6998C58.341 57.2863 55.8711 57.1277 54.8241 57.3846Z" fill="white"/>
</svg>
