<svg width="183" height="116" viewBox="0 0 183 116" fill="none" xmlns="http://www.w3.org/2000/svg">
<path d="M0 58C0 25.9675 25.9675 0 58 0H125C157.033 0 183 25.9675 183 58C183 90.0325 157.033 116 125 116H58C25.9675 116 0 90.0325 0 58Z" fill="#FFB000"/>
<path d="M122.455 48.2463C122.455 48.2463 80.723 48.2463 69.231 48.2463L71.0108 46.982C84.2262 39.3474 113.46 21.0101 113.46 21.0101C114.676 20.3095 115.094 18.7552 114.394 17.5391L111.841 11.2737C111.14 10.0576 109.586 9.63887 108.37 10.3395L60.2677 39.5729C59.0516 40.2816 58.6409 41.8359 59.3415 43.052L63.948 48.045L63.9802 86.3867C63.9802 87.796 65.1238 88.9315 66.5251 88.9315H122.455C123.864 88.9315 125 87.796 125 86.3867V50.7912C125 49.3899 123.856 48.2463 122.455 48.2463ZM104.013 50.0664L96.1612 57.6928H85.9979L93.6324 50.0664H104.013ZM100.703 17.2975L109.723 11.5072L108.41 20.0034L99.1731 25.9307L100.703 17.2975ZM84.6128 27.195L93.7935 21.4772L92.1587 30.0942L82.986 35.8121L84.6128 27.195ZM66.3237 46.233L67.8619 37.5918L76.9782 31.7693L75.432 40.3944L66.3237 46.233ZM75.8266 50.0664H85.9979L78.3715 57.6928H68.2002L75.8266 50.0664ZM120.619 85.823H68.3129V61.6551H120.619V85.823ZM114.128 57.6848H103.796L111.43 50.0583H121.529L114.128 57.6848Z" fill="white"/>
</svg>
