<svg width="183" height="116" viewBox="0 0 183 116" fill="none" xmlns="http://www.w3.org/2000/svg">
<path d="M0 58C0 25.9675 25.9675 0 58 0H125C157.033 0 183 25.9675 183 58C183 90.0325 157.033 116 125 116H58C25.9675 116 0 90.0325 0 58Z" fill="#FFB000"/>
<path d="M123.693 87.9858H107.415V87.9929H95.3072C92.7959 87.9929 90.7555 86.0422 90.7555 83.6573C90.7555 83.2587 90.8078 82.8813 90.9125 82.5183C92.2204 77.898 95.2399 73.9326 99.2983 71.4196C99.3955 71.3626 99.4926 71.2985 99.5898 71.2416C100.928 70.4442 102.378 69.8035 103.917 69.3479C101.862 67.7888 100.546 65.3825 100.546 62.6915C100.546 57.9858 104.552 54.1628 109.493 54.1628C114.441 54.1628 118.439 57.9858 118.439 62.6915C118.439 65.3825 117.124 67.7888 115.068 69.3479C116.608 69.8106 118.058 70.4514 119.396 71.2487C119.493 71.3056 119.59 71.3626 119.68 71.4196C123.746 73.9326 126.765 77.898 128.073 82.5112C128.178 82.8742 128.23 83.2587 128.23 83.6502C128.245 86.0422 126.205 87.9858 123.693 87.9858ZM99.7691 53.5292C99.2759 54.0062 98.805 54.5045 98.3939 55.0527C96.7646 57.2027 95.7855 59.8367 95.7855 62.6844C95.7855 64.3787 96.1218 66.0446 96.7721 67.5681C95.1129 68.5861 93.5807 69.8035 92.213 71.1989C89.4252 74.0394 87.3922 77.5349 86.3085 81.3294C86.0992 82.0769 85.9871 82.86 85.9871 83.6573C85.9871 85.2378 86.458 86.7043 87.2278 87.9929H84.5446V88H63.0794C58.6174 87.9929 55 84.5401 55 80.2971C55 79.5994 55.0972 78.9231 55.2765 78.2753C58.4081 67.2122 67.063 58.2848 78.3487 54.9245C74.7089 52.1481 72.3695 47.898 72.3695 43.1139C72.3695 34.7703 79.4848 28 88.2443 28C97.0038 28 104.112 34.7703 104.112 43.1139C104.112 47.1505 102.43 50.8026 99.7243 53.5078L99.7691 53.5292Z" fill="white"/>
</svg>
