<svg width="183" height="116" viewBox="0 0 183 116" fill="none" xmlns="http://www.w3.org/2000/svg">
<path d="M0 58C0 25.9675 25.9675 0 58 0H125C157.033 0 183 25.9675 183 58C183 90.0325 157.033 116 125 116H58C25.9675 116 0 90.0325 0 58Z" fill="#00BC87"/>
<path d="M73.4055 28.4709C73.4055 27.2639 74.3911 26.2854 75.5981 26.2854H108.402C109.616 26.2854 110.595 27.2639 110.595 28.4709V33.9417H113.88V28.4709C113.88 25.4497 111.43 23 108.409 23H75.591C72.5699 23 70.1201 25.4497 70.1201 28.4709V33.9417H73.3984L73.4055 28.4709Z" fill="white"/>
<path d="M75.591 40.5054H108.395C111.416 40.5054 113.866 38.0556 113.866 35.0345V33.9418H110.58V35.0345C110.58 36.2415 109.602 37.22 108.388 37.22H75.591C74.384 37.22 73.3984 36.2415 73.3984 35.0345V33.9418H70.1201V35.0345C70.1273 38.0556 72.5699 40.5054 75.591 40.5054Z" fill="white"/>
<path d="M79.9692 82.0655V78.7872H104.024V82.0655H79.9692Z" fill="white"/>
<path d="M79.9692 67.8455H104.024V71.1237H79.9692V67.8455Z" fill="white"/>
<path d="M79.9692 58.0035H104.024V61.2818H79.9692V58.0035Z" fill="white"/>
<path d="M111.68 75.5019H110.588V87.5292C110.588 88.7363 109.609 89.7147 108.395 89.7147H75.5913C74.3843 89.7147 73.3987 88.7363 73.3987 87.5292V75.5019H72.3059C71.0989 75.5019 70.1133 74.5234 70.1133 73.3164V90.8146C70.1133 92.0216 71.0989 93.0001 72.3059 93.0001H111.68C112.887 93.0001 113.873 92.0216 113.873 90.8146V73.3164C113.873 74.5234 112.887 75.5019 111.68 75.5019Z" fill="white"/>
<path d="M111.68 48.1616H72.3128C71.1057 48.1616 70.1201 49.1401 70.1201 50.3471V51.4399C70.1201 50.2328 71.1057 49.2544 72.3128 49.2544H111.687C112.894 49.2544 113.88 50.2328 113.88 51.4399V50.3471C113.873 49.1401 112.887 48.1616 111.68 48.1616Z" fill="white"/>
<path d="M124.807 33.9418H113.873V35.0345C113.873 38.0556 111.423 40.5054 108.402 40.5054H75.591C72.5698 40.5054 70.1201 38.0556 70.1201 35.0345V33.9418H59.1855C57.9785 33.9418 57 34.9202 57 36.1273V68.9382C57 70.1452 57.9785 71.1237 59.1855 71.1237H70.1201V51.44C70.1201 50.233 71.1057 49.2545 72.3127 49.2545H111.687C112.894 49.2545 113.88 50.233 113.88 51.44V71.1237H124.815C126.022 71.1237 127 70.1452 127 68.9382V36.1344C126.993 34.9202 126.014 33.9418 124.807 33.9418Z" fill="white"/>
<path d="M70.1201 73.3164C70.1201 74.5234 71.1057 75.5019 72.3128 75.5019H73.4055V71.1238H70.1201V73.3164Z" fill="white"/>
<path d="M110.587 75.5018H111.68C112.887 75.5018 113.873 74.5234 113.873 73.3164V71.1309H110.587V75.5018Z" fill="white"/>
<path d="M111.68 49.2544H72.3128C71.1057 49.2544 70.1201 50.2329 70.1201 51.4399V71.1236H73.4055V53.6254C73.4055 52.4184 74.3911 51.4399 75.5981 51.4399H108.402C109.616 51.4399 110.595 52.4184 110.595 53.6254V71.1236H113.88V51.4399C113.873 50.2329 112.887 49.2544 111.68 49.2544Z" fill="white"/>
</svg>
