<svg width="183" height="116" viewBox="0 0 183 116" fill="none" xmlns="http://www.w3.org/2000/svg">
<path d="M0 58C0 25.9675 25.9675 0 58 0H125C157.033 0 183 25.9675 183 58C183 90.0325 157.033 116 125 116H58C25.9675 116 0 90.0325 0 58Z" fill="#7100D0"/>
<path d="M72 48C72 50.7643 74.2357 53 77 53C79.7643 53 82 50.7643 82 48C82 45.2357 79.7643 43 77 43C74.2357 43 72 45.2357 72 48Z" fill="white"/>
<path d="M92 78C108.521 78 112 63 112 63H72C72 63 75.4786 78 92 78Z" fill="white"/>
<path d="M92 23C72.6714 23 57 38.6714 57 58C57 77.3286 72.6714 93 92 93C111.329 93 127 77.3286 127 58C127 38.6714 111.329 23 92 23ZM92 88C75.4286 88 62 74.5714 62 58C62 41.4286 75.4286 28 92 28C108.571 28 122 41.4286 122 58C122 74.5714 108.571 88 92 88Z" fill="white"/>
<path d="M102 48C102 50.7643 104.236 53 107 53C109.764 53 112 50.7643 112 48C112 45.2357 109.764 43 107 43C104.236 43 102 45.2357 102 48Z" fill="white"/>
</svg>
